<svg xmlns="http://www.w3.org/2000/svg" xml:space="preserve" width="1500" height="1500" fill="#fff" stroke="#fff" data-id="lg_i71Iy4FpW3N30reyZO" data-version="1"><path fill="#bfbfbf" stroke="transparent" d="M0 0h1500v1500H0z"/><g data-padding="20"><g transform="translate(-578.546 -581.382)scale(1.73087)"><path fill="#0f0f0f" d="m546.35 923.084-28.37-61.92h25.2l14.24 29.93 16.8-32.49 17.52 32.88 7.96-18.02q2.89-6.62 3.47-9.21.59-2.59 1.36-3.34.78-.75 1.84-.75t1.7.78.64 1.36q0 .59-.09 1.11-.08.53-.47 1.67t-1.28 3.09l-23.97 54.91-18.58-35.55Zm109.24-2.5v-3.67q-7.12 4.73-15.8 4.73-11.51 0-18.46-5.78-7.24-5.96-7.24-16.53 0-9.34 7.18-15.35 7.34-6.06 19.3-6.06 8.01 0 15.02 3.06v-15.3q-5.06-1.45-8.93-1.45-3.86 0-6.53.33-2.67.34-5.06 1.01-5.18 1.44-7.85 3.89-1.56 1.45-2.84 1.45-1.27 0-1.94-.64t-.67-1.42.28-1.42 1.06-1.31q1.66-1.44 5.56-2.89 8.06-3.06 16.19-3.06 24.7 0 31.54 11.79 3 5.23 3 13.74v34.88Zm0-8.45v-26.82q-7.01-3.39-13.96-3.39-1.11 0-2.11.17v35.38q.27.05.61.05h.67q7.62 0 14.79-5.39m88.29 3.67q3 0 3 2.22 0 1.01-1.28 1.78-1.28.78-4.34.78h-51.79l32.93-55.35h-16.74q-3.67 0-5.62.34-2.61.44-3.73.44-1.11 0-1.86-.64t-.75-1.58q0-2.62 5.51-2.62h48.17l-30.82 55.35h18.3q4.07 0 5.79-.33 2.06-.39 3.23-.39m52.62 4.78v-3.67q-7.12 4.73-15.8 4.73-11.51 0-18.47-5.78-7.23-5.96-7.23-16.53 0-9.34 7.18-15.35 7.34-6.06 19.3-6.06 8.01 0 15.02 3.06v-15.3q-5.06-1.45-8.93-1.45-3.86 0-6.53.33-2.67.34-5.07 1.01-5.17 1.44-7.84 3.89-1.56 1.45-2.84 1.45t-1.94-.64q-.67-.64-.67-1.42t.28-1.42 1.05-1.31q1.67-1.44 5.57-2.89 8.06-3.06 16.19-3.06 24.69 0 31.54 11.79 3 5.23 3 13.74v34.88Zm0-8.45v-26.82q-7.01-3.39-13.96-3.39-1.11 0-2.12.17v35.38q.28.05.62.05h.66q7.63 0 14.8-5.39m77.27-46.68-5.95-.23h-6.18v55.35h-23.92l.06-55.35h-.89l-5.29.23q-3.28 0-3.28-2.26 0-2.25 3.01-2.25l6.62.22q1.16-10.07 8.95-15.41 7.12-4.89 18.64-4.89 10.79 0 14.85 4.28 1.11 1.17 1.11 2.23 0 2.44-2.5 2.44-1.22 0-2.39-.83l-2-1.39q-3.23-2.39-6.96-2.62-1-.05-2.08-.05-1.09 0-2.04.11l-1.89.22v15.91h4.84l7.46-.22q3 0 3 2.25 0 2.26-3.17 2.26m51.58 55.13v-53.34q-1.39-.89-3-.89-1.62 0-3.34.75-1.73.75-3.62 2.08-3.95 2.84-7.29 7.57v43.83h-23.92v-59.41h23.92v9.51q9.52-10.51 21.53-10.51 19.64 0 19.64 19.03v41.38Zm52.45 13.12q3.39-1.05 4.73-2.72 1.89-2.23 4.56-8.01l1.28-2.95-30.32-58.86h25.31l15.8 33.6 9.12-21.3q2.51-5.85 3.28-8.91.78-3.05 1.53-3.72.76-.67 1.84-.67t1.7.67q.61.67.61 1.33 0 .67-.14 1.42t-.56 2q-.41 1.26-1.19 3.15l-23.09 53.51q-4.12 9.68-7.9 13.63-3.22 3.51-6.53 3.51t-3.31-2.31 3.28-3.37"/><rect width="524.585" height="128.82" x="105.268" y="304.574" fill="none" rx="0" ry="0" transform="translate(400.49 520.19)"/><g stroke-width="3" transform="translate(200.96 625.21)"><path d="M287.922 368.984H447.2" vector-effect="non-scaling-stroke"/>undefined
        undefined</g><g stroke-width="3" transform="translate(599.04 624.19)"><path d="M287.922 368.984H447.2" vector-effect="non-scaling-stroke"/>undefined
        undefined</g><path fill="#0f0f0f" d="M669.43 999.224q-2.16 0-3.35-1.08-1.2-1.08-1.2-3.01 0-.73.14-1.4l1.44-7.21h1.32l-1.44 7.17q-.15.76-.15 1.28 0 1.51.87 2.29.86.77 2.48.77 1.85 0 2.96-1.05 1.11-1.06 1.56-3.29l1.43-7.17h1.3l-1.44 7.26q-1.1 5.44-5.92 5.44m15.09-9.65q1.61 0 2.5.82t.89 2.26q0 .5-.11 1.08l-1.08 5.38h-1.28l1.08-5.4q.09-.5.09-.86 0-1.03-.62-1.58-.62-.54-1.82-.54-1.53 0-2.52.83-.99.84-1.33 2.48l-1.01 5.07h-1.28l1.87-9.46h1.22l-.3 1.51q1.35-1.59 3.7-1.59m5.69 9.55 2.66-13.35h1.28l-2.66 13.35Zm13.98-4.37h-7.95q-.02.12-.02.37 0 1.44.82 2.2.81.75 2.43.75.94 0 1.76-.31t1.34-.87l.57.91q-.66.67-1.66 1.04t-2.11.37q-2.06 0-3.23-1.08-1.18-1.08-1.18-2.95 0-1.58.67-2.86.68-1.28 1.87-2.01 1.2-.73 2.69-.73 1.89 0 3.01 1.07 1.11 1.07 1.11 2.95 0 .52-.12 1.15m-4.03-4.09q-1.42 0-2.43.85-1.01.84-1.37 2.28h6.75q.02-.12.02-.34 0-1.33-.81-2.06t-2.16-.73m15-1h1.28l-1.89 9.46h-1.23l.31-1.49q-.68.75-1.62 1.16-.93.42-2.07.42-1.2 0-2.14-.49-.93-.48-1.45-1.39-.53-.91-.53-2.13 0-1.6.7-2.88.69-1.28 1.91-2.01 1.23-.73 2.74-.73 1.35 0 2.26.53.92.54 1.33 1.52Zm-4.95 8.41q1.17 0 2.11-.56.93-.57 1.46-1.58.53-1.02.53-2.28 0-1.39-.81-2.17-.82-.78-2.3-.78-1.17 0-2.1.58-.94.57-1.47 1.59-.53 1.01-.53 2.27 0 1.39.82 2.16t2.29.77m10.65 1.14q-1.13 0-2.17-.33-1.03-.32-1.59-.82l.61-1.01q.54.47 1.43.75.88.29 1.85.29 1.35 0 2.08-.44.72-.44.72-1.25 0-.45-.29-.72-.3-.27-.73-.41-.43-.15-1.26-.33-.99-.21-1.6-.43-.61-.21-1.04-.68-.44-.47-.44-1.3 0-1.34 1.12-2.15 1.11-.8 2.99-.8.91 0 1.78.25.88.24 1.42.64l-.54 1.02q-.54-.39-1.27-.6t-1.5-.21q-1.3 0-2.02.47t-.72 1.26q0 .47.31.75.3.29.76.44.46.14 1.25.3.97.22 1.58.42.6.21 1.03.68t.43 1.26q0 1.38-1.14 2.17-1.14.78-3.05.78m12.53-9.63q1.6 0 2.49.82t.89 2.26q0 .5-.11 1.08l-1.08 5.38h-1.27l1.08-5.4q.09-.5.09-.86 0-1.03-.62-1.58-.62-.54-1.83-.54-1.53 0-2.52.83-.99.84-1.33 2.48l-1.01 5.07h-1.27l2.66-13.35h1.28l-1.07 5.31q1.32-1.5 3.62-1.5m22.53-3.06-6.71 8.34-.84 4.25h-1.32l.87-4.34-3.38-8.25h1.33l2.91 7.08 5.72-7.08Zm2.42 12.69q-1.29 0-2.27-.5-.97-.49-1.5-1.4t-.53-2.11q0-1.6.7-2.88t1.95-2.01 2.82-.73q1.98 0 3.14 1.08t1.16 2.92q0 1.6-.7 2.88-.7 1.29-1.95 2.02t-2.82.73m.09-1.14q1.17 0 2.11-.56.93-.57 1.46-1.58.53-1.02.53-2.28 0-1.39-.82-2.17-.81-.78-2.29-.78-1.17 0-2.1.58-.94.57-1.47 1.59-.53 1.01-.53 2.27 0 1.39.82 2.16t2.29.77m16.12-8.41h1.28l-1.89 9.46h-1.23l.31-1.51q-1.33 1.6-3.65 1.6-1.59 0-2.48-.82t-.89-2.28q0-.5.11-1.06l1.08-5.39h1.28l-1.08 5.39q-.09.51-.09.85 0 1.04.6 1.6t1.81.56q1.51 0 2.5-.85.99-.84 1.33-2.46Zm5.74 1.71q.63-.91 1.58-1.36.95-.44 2.3-.44l-.23 1.25-.36-.02q-1.53 0-2.51.88t-1.32 2.63l-.96 4.8h-1.27l1.87-9.46h1.22Zm16.46-4.85q2.12 0 3.31.93 1.18.94 1.18 2.63 0 2.41-1.55 3.73-1.56 1.32-4.29 1.32h-3.56l-.81 3.98h-1.32l2.52-12.59Zm-1.33 7.44q2.15 0 3.32-.95t1.17-2.81q0-1.24-.84-1.89-.85-.64-2.43-.64h-3.31l-1.28 6.29Zm10.92 5.25q-1.29 0-2.26-.5-.97-.49-1.5-1.4t-.53-2.11q0-1.6.7-2.88t1.95-2.01 2.81-.73q1.98 0 3.14 1.08t1.16 2.92q0 1.6-.7 2.88-.7 1.29-1.95 2.02t-2.82.73m.09-1.14q1.17 0 2.11-.56.93-.57 1.47-1.58.53-1.02.53-2.28 0-1.39-.82-2.17t-2.3-.78q-1.17 0-2.1.58-.94.57-1.47 1.59-.53 1.01-.53 2.27 0 1.39.82 2.16t2.29.77m10.12-7.34-1.1 5.52q-.07.43-.07.59 0 1.26 1.37 1.26.81 0 1.46-.48l.3.97q-.81.61-2.1.61-1.06 0-1.68-.58-.62-.57-.62-1.58 0-.4.07-.74l1.1-5.57h-1.68l.2-1.08h1.69l.41-2.07h1.28l-.41 2.07h2.88l-.22 1.08Zm12.96 4.02h-7.95q-.01.12-.01.37 0 1.44.81 2.2.82.75 2.44.75.94 0 1.76-.31.81-.31 1.34-.87l.57.91q-.66.67-1.66 1.04t-2.12.37q-2.05 0-3.23-1.08-1.17-1.08-1.17-2.95 0-1.58.67-2.86.68-1.28 1.87-2.01 1.2-.73 2.69-.73 1.89 0 3 1.07 1.12 1.07 1.12 2.95 0 .52-.13 1.15m-4.03-4.09q-1.42 0-2.42.85-1.01.84-1.37 2.28h6.74q.02-.12.02-.34 0-1.33-.81-2.06t-2.16-.73m12.26-1.09q1.6 0 2.49.82t.89 2.26q0 .5-.11 1.08l-1.08 5.38h-1.28l1.08-5.4q.09-.5.09-.86 0-1.03-.62-1.58-.62-.54-1.82-.54-1.53 0-2.52.83-.99.84-1.33 2.48l-1.01 5.07h-1.28l1.87-9.46h1.23l-.31 1.51q1.35-1.59 3.71-1.59m8.83 1.16-1.1 5.52q-.07.43-.07.59 0 1.26 1.37 1.26.8 0 1.45-.48l.31.97q-.81.61-2.11.61-1.06 0-1.68-.58-.62-.57-.62-1.58 0-.4.07-.74l1.1-5.57h-1.67l.2-1.08h1.69l.41-2.07h1.28l-.42 2.07h2.88l-.21 1.08Zm4.14 8.39 1.87-9.46h1.28l-1.87 9.46Zm3.06-11.53q-.38 0-.62-.25-.24-.26-.24-.6 0-.41.28-.69t.71-.28q.37 0 .63.24.25.25.25.57 0 .43-.29.72t-.72.29m11.04 2.07h1.28l-1.89 9.46h-1.23l.31-1.49q-.68.75-1.62 1.16-.94.42-2.07.42-1.2 0-2.14-.49-.93-.48-1.46-1.39-.52-.91-.52-2.13 0-1.6.69-2.88.7-1.28 1.92-2.01t2.73-.73q1.35 0 2.27.53.92.54 1.33 1.52Zm-4.95 8.41q1.17 0 2.11-.56.93-.57 1.46-1.58.53-1.02.53-2.28 0-1.39-.82-2.17-.81-.78-2.29-.78-1.17 0-2.1.58-.94.57-1.47 1.59-.53 1.01-.53 2.27 0 1.39.82 2.16t2.29.77m7.9 1.05 2.66-13.35h1.28l-2.66 13.35Z"/><rect width="219.476" height="20.34" x="257.823" y="358.814" fill="none" rx="0" ry="0" transform="translate(400.39 624.65)"/><path fill="#0f0f0f" d="m852.343 694.038-19.776-44.084c-.412-40.376-32.548-75.808-74.572-75.808-37.904 0-70.452 28.016-75.808 65.508-3.296 23.072 3.708 45.732 18.952 63.036 11.124 12.36 14.008 31.724 14.42 33.784v21.836c0 2.06 1.648 4.12 4.12 4.12h38.728v-83.224l-5.768 5.768c-1.648 1.648-4.12 1.648-5.768 0l-12.772-12.772c-1.648-1.648-1.648-4.12 0-5.768s4.12-1.648 5.768 0l9.888 9.888 9.888-9.888c1.236-1.236 4.12-1.648 5.768 0l9.888 9.888 9.888-9.888c1.648-1.648 4.12-1.648 5.768 0s1.648 4.12 0 5.768l-12.772 12.772c-1.648 1.648-4.12 1.648-5.768 0l-5.768-5.768v83.224h38.728c2.06 0 4.12-2.06 4.12-4.12v-25.544h12.772c7.004 0 13.184-5.768 13.184-12.772v-19.776h13.184c2.884-.412 4.944-3.708 3.708-6.18m-118.244-77.044c-8.652 6.18-14.832 15.656-16.892 25.956-.412 2.06-2.06 3.708-4.944 3.296-2.06-.412-3.708-2.472-3.296-4.944 2.472-12.36 9.888-23.484 20.188-30.9 2.06-1.236 4.532-.824 5.768.824 1.236 2.06.824 4.532-.824 5.768m56.897 173.04h-57.268c-2.06 0-4.12 2.06-4.12 4.12s2.06 4.12 4.12 4.12h57.268c2.06 0 4.12-2.06 4.12-4.12 0-2.472-1.648-4.12-4.12-4.12M798 772.318h-71.276a4.12 4.12 0 1 0 0 8.24H798c2.472 0 4.12-1.648 4.12-4.12s-2.06-4.12-4.12-4.12M762.156 558.49c2.472 0 4.12-1.648 4.12-4.12v-15.656c0-2.472-1.648-4.12-4.12-4.12s-4.12 1.648-4.12 4.12v15.656c0 2.06 2.06 4.12 4.12 4.12m-40.788 2.884c.824 2.06 3.296 3.296 5.356 2.06 2.06-.824 3.296-3.296 2.06-5.356l-5.768-14.42c-.824-2.06-3.296-3.296-5.356-2.06-2.06.824-3.296 3.296-2.06 5.356Zm-25.132 21.012c1.648-1.648 1.648-4.12 0-5.768l-11.124-11.124c-1.648-1.648-4.12-1.648-5.768 0s-1.648 4.12 0 5.768l11.124 11.124c1.648 1.648 4.12 1.648 5.768 0m135.548 5.768 11.124-11.124c1.648-1.648 1.648-4.12 0-5.768s-4.12-1.648-5.768 0l-11.124 11.124c-1.648 1.648-1.648 4.12 0 5.768s4.532 1.648 5.768 0m-34.608-21.012c2.06.824 4.532 0 5.356-2.06l5.768-14.42c.824-2.06 0-4.532-2.06-5.356s-4.532 0-5.356 2.06l-5.768 14.42c-.824 2.06 0 4.532 2.06 5.356"/></g><path fill="transparent" stroke="transparent" stroke-width="1.795" d="M250 328.995h1000v842.01H250z"/></g></svg>